# xmcd
#
# Track frame offsets:
# 150
# 20648
# 40686
# 59664
# 80359
# 99983
# 115239
# 134743
# 156193
# 170843
# 192901
# 214435
# 237068
# 252872
# 272869
#
# Disc length: 3897 seconds
#
#
# Revision: 2
# Processed by: cddbd v1.5.1PL0 Copyright (c) Steve Scherf et al.
# Submitted via: FreeRIP 2.91 
#
DISCID=db0f370f
DTITLE=Bob De Angelis - In A Sentimental Mood
DYEAR=2003
DGENRE=Jazz
TTITLE0=In a Sentimental Mood
TTITLE1=Stranger on the Shore
TTITLE2=Tenderly
TTITLE3=Blue Velvet
TTITLE4=What a Wonderful World
TTITLE5=Edelweiss
TTITLE6=What a Difference a Day Makes
TTITLE7=I'm in the Mood for Love
TTITLE8=Que Sera Sera
TTITLE9=La Vie en Rose
TTITLE10=It's Not for Me to Say
TTITLE11=I Only Have Eyes for You
TTITLE12=Please Release Me
TTITLE13=You'll Never Know
TTITLE14=Can't Help Falling in Love
EXTD=YEAR: 2003
EXTT0=
EXTT1=
EXTT2=
EXTT3=
EXTT4=
EXTT5=
EXTT6=
EXTT7=
EXTT8=
EXTT9=
EXTT10=
EXTT11=
EXTT12=
EXTT13=
EXTT14=
PLAYORDER=
